# xmcd
#
# Track frame offsets: 
#        150
#        11675
#        23510
#        33900
#        45587
#        59100
#        72067
#        85327
#        98627
#        112245
#        125295
#        137032
#        149892
#        162147
#        176342
#        190395
#        202385
#        214360
#        226847
#        241092
#        253707
#
# Disc length: 3576 seconds
#
# Revision: 2
# Processed by: cddbd v1.5.2PL0 Copyright (c) Steve Scherf et al.
# Submitted via: ExactAudioCopyFreeDBPlugin 1.0
#
DISCID=320df615
DTITLE=Various Artist - Saxophony - Jubilee Honkers And Shouters
DYEAR=1995
DGENRE=Jazz
TTITLE0=Freddie Kohlman Orchestra - Easy Rockin'
TTITLE1=Jimmy Wright - Flashlight
TTITLE2=Jimmy Wright - Flashlight
TTITLE3=Jimmy Wright - Jim The Him take 1
TTITLE4=Jimmy Wright - Move Over
TTITLE5=Jimmy Wright - 2:20 AM
TTITLE6=Rene Hall Sextette - Blowin' Awhile
TTITLE7=Rene Hall Sextette - Rene's Boogie
TTITLE8=Rene Hall Sextette - Blue Creek Hop
TTITLE9=Rene Hall Sextette - Chitlin Switch
TTITLE10=Rene Hall Sextette - Downbeat
TTITLE11=Rene Hall Sextette - Jubilee Jump
TTITLE12=Jesse Powell - Jesse's Blues
TTITLE13=Jesse Powell - Turnpike
TTITLE14=Buddy Lucas - Sopping Molasses
TTITLE15=Buddy Lucas - Whopping Blues
TTITLE16=Buddy Lucas - Pea Lily
TTITLE17=Buddy Lucas - One Taste Calls For Another
TTITLE18=Buddy Lucas - Give It Up
TTITLE19=Buddy Lucas - Undecided
TTITLE20=Buddy Lucas - Big Bertha
EXTD=
EXTT0=
EXTT1=
EXTT2=
EXTT3=
EXTT4=
EXTT5=
EXTT6=
EXTT7=
EXTT8=
EXTT9=
EXTT10=
EXTT11=
EXTT12=
EXTT13=
EXTT14=
EXTT15=
EXTT16=
EXTT17=
EXTT18=
EXTT19=
EXTT20=
PLAYORDER=
